<?xml version="1.0" encoding="iso-8859-1"?>
<!-- Generator: Adobe Illustrator 21.0.0, SVG Export Plug-In . SVG Version: 6.00 Build 0)  -->
<svg xmlns="http://www.w3.org/2000/svg" xmlns:xlink="http://www.w3.org/1999/xlink" version="1.1" id="Capa_1" x="0px" y="0px" viewBox="0 0 511.962 511.962" style="enable-background:new 0 0 511.962 511.962;" xml:space="preserve" width="512" height="512">
<g>
	<g>
		<path style="fill:#BDBDBD;" d="M383.181,511.962c-5.609,0-11.221-1.36-16.215-4.231c-7.773-4.468-13.337-11.698-15.666-20.356    c-2.039-7.583-1.383-15.463,1.823-22.52l-100.892-58.25c-2.32-1.34-3.75-3.815-3.75-6.495s1.43-5.155,3.75-6.495l31.77-18.342    c2.32-1.34,5.18-1.34,7.5,0l85.009,49.08c9.639-13.429,28.159-17.891,42.894-10.092c8.136,4.306,14.016,11.539,16.556,20.368    c2.542,8.832,1.412,18.079-3.183,26.036c-3.141,5.441-7.721,9.873-13.246,12.816c-1.468,0.782-2.387,2.505-2.34,4.39    c0.164,6.721-1.686,13.282-5.35,18.974C405.612,506.521,394.401,511.962,383.181,511.962z M224.212,389.269    c-1.295,0-2.59-0.335-3.75-1.005l-85.007-49.079c-4.509,6.305-11.004,10.813-18.591,12.839    c-8.666,2.314-17.708,1.108-25.464-3.389c-14.948-8.668-20.905-28.958-13.008-44.307c3.097-6.018,7.854-10.9,13.757-14.119    c1.656-0.902,2.688-2.56,2.632-4.222c-0.213-6.255,1.335-12.438,4.477-17.879c4.595-7.958,12.037-13.56,20.956-15.775    c8.915-2.213,18.121-0.739,25.917,4.154c14.121,8.861,19.518,27.136,12.707,42.193l100.894,58.251    c2.32,1.34,3.75,3.815,3.75,6.495s-1.43,5.155-3.75,6.495l-31.77,18.342C226.802,388.934,225.507,389.269,224.212,389.269z"/>
	</g>
	<g>
		<path style="fill:#E0E0E0;" d="M128.782,511.962c-11.222,0-22.431-5.44-28.661-15.118c-3.665-5.693-5.515-12.254-5.349-18.975    c0.047-1.883-0.872-3.606-2.34-4.389c-5.525-2.944-10.105-7.375-13.246-12.817c-4.595-7.957-5.725-17.204-3.184-26.036    c2.541-8.829,8.421-16.062,16.557-20.368c14.734-7.797,33.26-3.335,42.894,10.092L353.125,298.68    c-6.813-15.057-1.415-33.332,12.707-42.193c7.796-4.893,16.999-6.368,25.916-4.155c8.92,2.215,16.362,7.817,20.957,15.775    c3.142,5.442,4.689,11.625,4.477,17.88c0,0,0,0.001,0,0.001c-0.058,1.661,0.976,3.317,2.631,4.219    c5.904,3.219,10.661,8.101,13.758,14.12c7.897,15.348,1.94,35.638-13.008,44.306c-7.757,4.498-16.798,5.702-25.464,3.389    c-7.587-2.025-14.082-6.534-18.591-12.839L158.84,464.856c3.206,7.057,3.862,14.936,1.823,22.52    c-2.329,8.658-7.893,15.888-15.666,20.357C140.004,510.602,134.391,511.962,128.782,511.962z M409.685,285.732h0.01H409.685z"/>
	</g>
	<path style="fill:#E0E0E0;" d="M386.793,193.241c-2.342-1.571-3.662-4.366-3.447-7.293l3.235-43.938   c2.751-37.348-9.437-72.848-34.316-99.958c-24.471-26.665-58.08-41.596-94.637-42.043c-36.601-0.415-72.025,14.586-97.105,41.252   c-25.084,26.67-37.929,62.905-35.239,99.415l3.334,45.272c0.215,2.928-1.105,5.723-3.448,7.294   c-9.653,6.477-15.014,17.723-13.802,29.466c1.667,16.156,15.683,28.227,31.925,28.227h24.876c6.325,0,11.716,4.729,12.539,11.001   l7.781,59.26c1.262,9.604,9.517,16.846,19.202,16.846h1.557c4.461,0,8.078-3.617,8.078-8.078v-26.463   c0-4.107,3.165-7.688,7.27-7.811c4.247-0.127,7.73,3.278,7.73,7.497v26.777c0,4.461,3.617,8.078,8.078,8.078h0   c4.461,0,8.078-3.617,8.078-8.078v-26.463c0-4.107,3.165-7.688,7.27-7.811c4.247-0.127,7.73,3.278,7.73,7.497v26.777   c0,4.461,3.617,8.078,8.078,8.078l0,0c4.461,0,8.078-3.617,8.078-8.078v-26.463c0-4.107,3.165-7.688,7.27-7.811   c4.247-0.127,7.73,3.278,7.73,7.497v26.777c0,4.461,3.617,8.078,8.078,8.078h1.557c9.686,0,17.94-7.242,19.202-16.846l7.781-59.261   c0.823-6.271,6.214-11,12.539-11h24.877c16.242,0,30.258-12.072,31.925-28.228C401.808,210.965,396.447,199.719,386.793,193.241z"/>
	<path style="fill:#BDBDBD;" d="M386.793,193.241c-2.342-1.571-3.662-4.366-3.447-7.293l3.235-43.938   c2.751-37.348-9.437-72.848-34.316-99.958c-16.105-17.549-36.169-30.013-58.426-36.614c6.58,4.887,12.751,10.43,18.426,16.614   c24.88,27.111,37.067,62.61,34.316,99.958l-3.235,43.938c-0.215,2.928,1.105,5.723,3.447,7.293   c9.655,6.477,15.015,17.724,13.803,29.466c-1.667,16.156-15.683,28.228-31.925,28.228h-24.876c-6.325,0-11.716,4.729-12.539,11   l-7.146,54.42c0.856-0.398,1.798-0.636,2.798-0.665c4.248-0.127,7.73,3.278,7.73,7.497v26.777c0,4.461,3.617,8.078,8.078,8.078   h1.557c9.686,0,17.94-7.242,19.202-16.846l7.781-59.261c0.823-6.271,6.214-11,12.539-11h24.876   c16.242,0,30.258-12.072,31.925-28.228C401.808,210.965,396.447,199.719,386.793,193.241z"/>
	<path style="fill:#616161;" d="M273.223,246.94c0,9.522-7.719,11.901-17.242,11.901c-9.522,0-17.242-2.379-17.242-11.901   c0-9.522,7.719-34.483,17.242-34.483C265.504,212.457,273.223,237.418,273.223,246.94z"/>
	<circle style="fill:#616161;" cx="200.086" cy="179.915" r="36.775"/>
	<circle style="fill:#616161;" cx="311.877" cy="179.915" r="36.775"/>
</g>















</svg>
